<?xml version="1.0" encoding="utf-8"?>
<!-- Generator: Adobe Illustrator 22.0.0, SVG Export Plug-In . SVG Version: 6.00 Build 0)  -->
<svg version="1.1" id="Capa_1" xmlns="http://www.w3.org/2000/svg" xmlns:xlink="http://www.w3.org/1999/xlink" x="0px" y="0px"
	 viewBox="0 0 512 512" style="enable-background:new 0 0 512 512;" xml:space="preserve">
<style type="text/css">
	.st0{fill:#001E50;}
</style>
<path class="st0" d="M30,195.1v30H0v30h30V437H0v30h512v-30h-30V255.2h30v-30h-30v-30L30,195.1L30,195.1z M281.1,255.2V437h-50.3
	V255.2H281.1z M105.3,255.2h50.3V437h-50.3V255.2z M406.7,437h-50.3V255.2h50.3V437z"/>
<path class="st0" d="M512,135.1v-30h-30H331v-30h-30v30h-30V45h-30v60.1h-30v-30h-30v30H30H0v30h30v30h120.9v-30h30v30H331v-30h30
	v30h121v-30H512z"/>
</svg>
