<svg xmlns="http://www.w3.org/2000/svg" width="35.244" height="23.13" viewBox="0 0 35.244 23.13">
  <defs>
    <style>
      .cls-1 {
        opacity: 0.5;
      }

      .cls-2 {
        fill: #fff;
      }
    </style>
  </defs>
  <g id="Cupra" class="cls-1" transform="translate(-0.606 -0.95)">
    <g id="_bababeff" data-name="#bababeff" transform="translate(7.872 0.95)">
      <path id="Pfad_316" data-name="Pfad 316" class="cls-2" d="M64.87.95C68.25,2.126,71.613,3.356,75,4.508a.479.479,0,0,0,.358,0C78.742,3.35,82.1,2.13,85.477.95q-1.8,2.863-3.629,5.7c-.565-.243-1.148-.445-1.717-.678.33-.581.685-1.149,1.02-1.727-1.09.548-2.2,1.058-3.281,1.622.756.288,1.514.571,2.264.875a1.273,1.273,0,0,1,.9.99A2.332,2.332,0,0,1,80.46,9.16c-1.63,2.551-3.251,5.108-4.89,7.654a19.353,19.353,0,0,1,.011-2.017c.644-2.045,1.281-4.093,1.868-6.155.115-.306-.227-.47-.448-.578-.622-.275-1.2-.639-1.841-.874-.646.279-1.265.617-1.9.924-.2.09-.471.269-.36.525.582,2.063,1.226,4.11,1.865,6.156a20.043,20.043,0,0,1,.007,2.019q-2.418-3.785-4.831-7.575a2.5,2.5,0,0,1-.617-1.519,1.287,1.287,0,0,1,.9-.98c.744-.3,1.5-.58,2.249-.873C71.4,5.3,70.294,4.79,69.206,4.247c.334.579.689,1.145,1.017,1.727-.573.228-1.153.44-1.724.674Q66.671,3.807,64.87.95Z" transform="translate(-64.87 -0.95)"/>
      <path id="Pfad_317" data-name="Pfad 317" class="cls-2" d="M128.23,178.963c.011-1.115-.008-2.228.01-3.343,1.834.012,3.669,0,5.5.007a.788.788,0,0,1,.848.554,6.115,6.115,0,0,1,.007,1.142.765.765,0,0,1-.848.644c-1.5,0-2.991,0-4.488,0,0,.335,0,.668.007,1-.346.009-.692,0-1.038-.008m1.028-2.587c0,.26.007.52.012.781,1.42-.014,2.84.012,4.26-.012.258-.149.083-.508.131-.747C132.195,176.348,130.725,176.388,129.258,176.376Z" transform="translate(-121.067 -155.873)"/>
    </g>
    <g id="_bbbbbbff" data-name="#bbbbbbff" transform="translate(0.606 20.697)">
      <path id="Pfad_318" data-name="Pfad 318" class="cls-2" d="M.669,176.152a.943.943,0,0,1,.882-.51c1.8,0,3.6,0,5.394,0,0,.308,0,.616.007.924-1.761.012-3.525-.016-5.285.014l-.13.106c-.02.442,0,.886-.014,1.33a1.737,1.737,0,0,0,.487.073c1.646,0,3.292,0,4.938,0q0,.446,0,.892c-1.724.05-3.45.007-5.175.025-.423.017-.947-.064-1.115-.517a6.669,6.669,0,0,1-.045-1.221A4.283,4.283,0,0,1,.669,176.152Z" transform="translate(-0.606 -175.638)"/>
      <path id="Pfad_319" data-name="Pfad 319" class="cls-2" d="M64.288,178.151c0-.843-.006-1.687,0-2.529.369,0,.738,0,1.108.006.012.808-.014,1.618.016,2.426,1.368.027,2.737.011,4.105.009.057-.812.014-1.626.026-2.437.373,0,.746,0,1.119-.006.008.842.01,1.686,0,2.529a.861.861,0,0,1-.866.822c-1.284.038-2.57-.012-3.855.01a4.571,4.571,0,0,1-1.111-.07A.815.815,0,0,1,64.288,178.151Z" transform="translate(-57.085 -175.62)"/>
      <path id="Pfad_320" data-name="Pfad 320" class="cls-2" d="M192.213,175.64c1.8,0,3.6,0,5.4,0a.918.918,0,0,1,.944.6,7.894,7.894,0,0,1,0,1.133c-.057.317-.336.483-.591.63.244.31.461.639.681.967-.445-.028-1.122.239-1.37-.266-.149-.237-.291-.479-.435-.719-1.19-.01-2.381,0-3.571,0,0,.328,0,.656.007.985a6.88,6.88,0,0,1-1.068.009c.006-1.114,0-2.227,0-3.341m1.07.717c-.009.271-.009.544-.008.815,1.406-.01,2.814.019,4.219-.014l.141-.1c-.02-.228.116-.573-.157-.686C196.081,176.341,194.681,176.369,193.283,176.357Z" transform="translate(-170.548 -175.638)"/>
      <path id="Pfad_321" data-name="Pfad 321" class="cls-2" d="M256.14,176.461a.9.9,0,0,1,.99-.83c1.784,0,3.568,0,5.352,0,.006,1.114.019,2.228-.014,3.342a5.573,5.573,0,0,1-.932,0c-.14-.293-.021-.675-.055-1h-4.3c0,.335,0,.67,0,1.006-.347.009-.693,0-1.039-.01.01-.837-.021-1.673,0-2.51m1.046-.067c0,.257,0,.513,0,.771,1.429-.008,2.859,0,4.289,0,0-.259,0-.517.007-.776C260.051,176.387,258.618,176.372,257.186,176.394Z" transform="translate(-227.246 -175.628)"/>
    </g>
  </g>
</svg>
