<svg xmlns="http://www.w3.org/2000/svg" width="31.626" height="25.13" viewBox="0 0 31.626 25.13">
  <g id="SEAT_Logo_from_2017" transform="translate(-0.633 -0.62)" opacity="0.5">
    <g id="_19191bff" data-name="#19191bff" transform="translate(7.202 0.62)">
      <path id="Pfad_323" data-name="Pfad 323" d="M158.62.669c3.471-.122,6.945,0,10.41.222A8.861,8.861,0,0,1,170.123,1a.808.808,0,0,1,.518.3,1.75,1.75,0,0,1,.133.628c.082,1.04.107,2.084.184,3.123a2.945,2.945,0,0,1-.45-.01c-2.672-.138-5.347-.253-8.023-.257-1.386,0-2.774-.01-4.159.058a1.262,1.262,0,0,0-.91.461c1.048.186,2.094.387,3.141.576,3.472.65,6.946,1.285,10.418,1.934,0,.658,0,1.317,0,1.975-1.952-.323-3.9-.672-5.852-1.005-4.2-.723-8.393-1.457-12.592-2.173.008-.731.039-1.461.055-2.193a9.632,9.632,0,0,1,.141-1.735,2.09,2.09,0,0,1,.555-1.091,3.21,3.21,0,0,1,1.99-.739C156.385.744,157.5.71,158.62.669Z" transform="translate(-152.51 -0.62)" fill="#fff"/>
      <path id="Pfad_324" data-name="Pfad 324" d="M152.07,160.76q9.02,1.664,18.037,3.354a3.294,3.294,0,0,1,.4.083l.015.035c-.033.986-.052,1.974-.088,2.96a3.772,3.772,0,0,1-.4,1.781,2.3,2.3,0,0,1-1.58.977,21.255,21.255,0,0,1-2.768.233,104.626,104.626,0,0,1-11.927-.193,4.578,4.578,0,0,1-.948-.116.72.72,0,0,1-.415-.279,1.824,1.824,0,0,1-.127-.625c-.085-1.151-.13-2.3-.19-3.456,2.047.13,4.1.2,6.149.249,1.98.032,3.961.032,5.941.051a1.663,1.663,0,0,0,1.213-.364c.047-.054.124-.1.116-.186-.893-.134-1.78-.3-2.671-.447q-5.377-.919-10.755-1.836C152.068,162.241,152.073,161.5,152.07,160.76Z" transform="translate(-152.07 -153.814)" fill="#fff"/>
      <path id="Pfad_325" data-name="Pfad 325" d="M393.1,480.186a1.712,1.712,0,0,1,1.217-.438q2.524,0,5.049,0c0,1.449.006,2.9,0,4.346h-1.146c-.008-.421-.006-.843,0-1.264-1.447-.028-2.9,0-4.345-.014-.039.423,0,.853-.018,1.278h-1.145c-.016-.91,0-1.822-.008-2.733a1.634,1.634,0,0,1,.4-1.176m.862.732a2.663,2.663,0,0,0-.108,1.041c1.453.009,2.907,0,4.36,0,0-.455.007-.911,0-1.366-1.21.009-2.42,0-3.63,0A.667.667,0,0,0,393.961,480.918Z" transform="translate(-382.263 -458.965)" fill="#fff"/>
      <path id="Pfad_326" data-name="Pfad 326" d="M578.747,479.736c2.179-.011,4.359,0,6.538-.006.017.284.009.569,0,.853h-2.7q.005,1.748,0,3.5h-1.142c-.024-1.056,0-2.112-.011-3.169-.013-.112.039-.241-.027-.34a5.608,5.608,0,0,1-.573.012c-.7,0-1.394,0-2.091,0C578.744,480.3,578.743,480.017,578.747,479.736Z" transform="translate(-560.237 -458.949)" fill="#fff"/>
    </g>
    <g id="_19181bff" data-name="#19181bff" transform="translate(0.633 21.402)">
      <path id="Pfad_327" data-name="Pfad 327" d="M1.137,479.894a2.109,2.109,0,0,1,.985-.151c1.735,0,3.47-.005,5.2,0,0,.276,0,.553,0,.829-1.763.016-3.528,0-5.291.008-.143-.007-.325.052-.356.21a.381.381,0,0,0,.085.362.637.637,0,0,0,.359.1q2.154.18,4.308.356a1.549,1.549,0,0,1,.946.35,1.211,1.211,0,0,1,.277.914,1.251,1.251,0,0,1-.325.914,1.18,1.18,0,0,1-.826.271c-1.892,0-3.785.006-5.677-.006a8.018,8.018,0,0,1,0-.823c1.776.01,3.553,0,5.329,0a.472.472,0,0,0,.347-.1.382.382,0,0,0-.344-.641c-1.259-.108-2.518-.211-3.777-.317a4.53,4.53,0,0,1-1.165-.176.873.873,0,0,1-.517-.5,2.16,2.16,0,0,1-.068-.758A.9.9,0,0,1,1.137,479.894Z" transform="translate(-0.633 -479.743)" fill="#fff"/>
      <path id="Pfad_328" data-name="Pfad 328" d="M196.485,479.752q3.328-.005,6.656,0l.079.01c0,.275-.006.552,0,.828a.713.713,0,0,1-.213.014c-1.789,0-3.578,0-5.367,0-.008.281,0,.563,0,.845,1.313.008,2.626,0,3.939,0,.472.008.947-.016,1.417.013,0,.269,0,.539,0,.809a2,2,0,0,1-.334.014h-5.025a1.493,1.493,0,0,0,.1.71.7.7,0,0,0,.628.248q2.424,0,4.849,0c.005.272,0,.544,0,.815-.661.024-1.325,0-1.987.012-1.141,0-2.282,0-3.423,0a1.433,1.433,0,0,1-1.064-.517,1.617,1.617,0,0,1-.265-1.012C196.484,481.61,196.476,480.681,196.485,479.752Z" transform="translate(-187.985 -479.75)" fill="#fff"/>
    </g>
  </g>
</svg>
