<svg version="1.1" id="Layer_1" xmlns="http://www.w3.org/2000/svg" xmlns:xlink="http://www.w3.org/1999/xlink" x="0px" y="0px" viewBox="0 0 56 56" style="enable-background:new 0 0 56 56;" xml:space="preserve">
<style type="text/css">
	.st0{fill:#17234E;}
    .st0{fill:#fff; opacity: .5;}
</style>
<g>
	<g>
		<path class="st0" d="M3.622,52.502v-3.869h1.147v5.61H3.556l-2.385-3.869H1.147v3.869H0v-5.61h1.213l2.384,3.869H3.622z"></path>
		<path class="st0" d="M7.099,50.266v2.393c0,0.519,0.189,0.792,0.676,0.792c0.371,0,0.668-0.206,0.841-0.339v-2.846H9.73v3.976
			H8.831l-0.148-0.388H8.666c-0.223,0.197-0.619,0.511-1.237,0.511c-0.949,0-1.443-0.635-1.443-1.592v-2.508H7.099z"></path>
		<path class="st0" d="M12.347,49.343v0.924h1.139v0.85h-1.139v1.881c0,0.289,0.148,0.454,0.47,0.454
			c0.19,0,0.454-0.058,0.643-0.116v0.907c-0.165,0.041-0.544,0.124-0.932,0.124c-0.883,0-1.296-0.363-1.296-1.163v-2.087h-0.725
			v-0.602l0.725-0.248v-0.924H12.347z"></path>
		<path class="st0" d="M17.398,50.266v0.586l-1.914,2.524v0.017h1.914v0.85h-3.275v-0.586l1.906-2.524v-0.017h-1.781v-0.85H17.398z"></path>
		<path class="st0" d="M18.687,54.243v-3.127h-0.701v-0.602l0.701-0.248v-0.528c0-0.916,0.536-1.312,1.353-1.312
			c0.223,0,0.536,0.025,0.709,0.058v0.916c-0.157-0.033-0.396-0.058-0.536-0.058c-0.297,0-0.412,0.082-0.412,0.445v0.478h0.99v0.85
			h-0.99v3.127H18.687z"></path>
		<path class="st0" d="M24.867,53.376c0,0.124,0.008,0.148,0.132,0.148h0.288v0.759c-0.173,0.033-0.338,0.058-0.577,0.058
			c-0.429,0-0.652-0.165-0.792-0.47h-0.017c-0.264,0.223-0.792,0.495-1.278,0.495c-0.891,0-1.345-0.528-1.345-1.254
			c0-0.883,0.561-1.303,1.963-1.303h0.536v-0.181c0-0.495-0.437-0.57-0.676-0.57c-0.437,0-0.932,0.116-1.32,0.289l-0.264-0.85
			c0.42-0.189,1.023-0.355,1.642-0.355c1.147,0,1.707,0.586,1.707,1.609V53.376z M23.358,52.527c-0.734,0-1.015,0.19-1.015,0.487
			c0,0.33,0.19,0.478,0.528,0.478c0.289,0,0.676-0.107,0.907-0.272v-0.693H23.358z"></path>
		<path class="st0" d="M28.78,54.243V51.85c0-0.503-0.222-0.792-0.709-0.792c-0.404,0-0.693,0.214-0.858,0.38v2.805h-1.114v-5.775
			h1.114v2.128h0.017c0.214-0.197,0.66-0.453,1.188-0.453c0.948,0,1.476,0.643,1.476,1.601v2.499H28.78z"></path>
		<path class="st0" d="M31.876,50.266l0.157,0.478h0.017c0.148-0.255,0.478-0.602,1.006-0.602c0.14,0,0.297,0.025,0.396,0.05
			l-0.099,0.932c-0.124-0.024-0.297-0.033-0.396-0.033c-0.462,0-0.726,0.215-0.867,0.388v2.763h-1.114v-3.976H31.876z"></path>
		<path class="st0" d="M37.215,50.266v0.586l-1.914,2.524v0.017h1.914v0.85H33.94v-0.586l1.906-2.524v-0.017h-1.781v-0.85H37.215z"></path>
		<path class="st0" d="M39.007,52.576c0.042,0.561,0.404,0.899,0.998,0.899c0.462,0,0.883-0.107,1.271-0.248l0.255,0.8
			c-0.396,0.19-0.973,0.339-1.609,0.339c-1.378,0-2.045-0.948-2.045-2.12c0-1.13,0.693-2.104,1.988-2.104
			c1.287,0,1.857,0.784,1.857,1.716c0,0.256-0.033,0.578-0.058,0.718H39.007z M40.699,51.883c0.008-0.041,0.008-0.083,0.008-0.124
			c0-0.445-0.206-0.808-0.833-0.808c-0.561,0-0.842,0.453-0.866,0.932H40.699z"></path>
		<path class="st0" d="M43.696,50.266v2.393c0,0.519,0.189,0.792,0.676,0.792c0.371,0,0.668-0.206,0.841-0.339v-2.846h1.114v3.976
			h-0.899l-0.148-0.388h-0.017c-0.223,0.197-0.619,0.511-1.237,0.511c-0.949,0-1.443-0.635-1.443-1.592v-2.508H43.696z"></path>
		<path class="st0" d="M51.246,53.987c0,1.337-0.75,2.013-2.054,2.013c-0.652,0-1.171-0.182-1.559-0.388l0.322-0.816
			c0.33,0.173,0.742,0.288,1.237,0.288c0.652,0,0.94-0.23,0.94-0.891v-0.297h-0.016c-0.239,0.173-0.57,0.396-1.13,0.396
			c-1.147,0-1.732-0.907-1.732-2.062c0-1.155,0.586-2.087,1.732-2.087c0.594,0,0.932,0.281,1.229,0.487h0.017l0.148-0.363h0.866
			V53.987z M50.132,51.306c-0.222-0.132-0.511-0.248-0.8-0.248c-0.66,0-0.94,0.462-0.94,1.171c0,0.709,0.281,1.147,0.94,1.147
			c0.289,0,0.578-0.099,0.8-0.222V51.306z"></path>
		<path class="st0" d="M53.286,52.576c0.041,0.561,0.404,0.899,0.998,0.899c0.461,0,0.883-0.107,1.27-0.248l0.256,0.8
			c-0.396,0.19-0.973,0.339-1.609,0.339c-1.378,0-2.046-0.948-2.046-2.12c0-1.13,0.693-2.104,1.988-2.104
			c1.287,0,1.856,0.784,1.856,1.716c0,0.256-0.033,0.578-0.058,0.718H53.286z M54.977,51.883c0.009-0.041,0.009-0.083,0.009-0.124
			c0-0.445-0.206-0.808-0.834-0.808c-0.561,0-0.841,0.453-0.866,0.932H54.977z"></path>
	</g>
	<g>
		<g id="Page-1_46_">
			<g id="Artboard_46_" transform="translate(-173.000000, -259.000000)">
				<g id="Group-2_46_" transform="translate(173.000000, 259.000000)">
					<g id="Group-7_46_">
						<g id="VW-logo-S_46_">
							<path id="Shape_46_" class="st0" d="M28,38.686c-9.91,0-18.058-8.222-18.058-18.132c0-2.055,0.367-4.037,1.028-5.946
								L21.54,35.163c0.147,0.294,0.294,0.514,0.661,0.514s0.514-0.22,0.661-0.514l4.918-10.938c0.073-0.147,0.147-0.22,0.22-0.22
								c0.147,0,0.147,0.147,0.22,0.22l4.992,10.938c0.147,0.294,0.294,0.514,0.661,0.514c0.367,0,0.514-0.22,0.661-0.514
								l10.571-20.554c0.661,1.835,1.028,3.817,1.028,5.946C46.058,30.464,37.91,38.686,28,38.686z M28,15.856
								c-0.147,0-0.147-0.147-0.22-0.22L22.127,3.45C23.963,2.79,25.945,2.422,28,2.422s4.037,0.367,5.873,1.028L28.22,15.636
								C28.147,15.709,28.147,15.856,28,15.856z M22.054,29.07c-0.147,0-0.147-0.147-0.22-0.22l-9.249-17.765
								c1.615-2.643,3.964-4.845,6.68-6.387l6.533,14.094c0.147,0.294,0.294,0.367,0.514,0.367h3.377
								c0.22,0,0.367-0.073,0.514-0.367l6.46-14.094c2.716,1.542,5.065,3.744,6.68,6.387l-9.176,17.765
								c-0.073,0.147-0.147,0.22-0.22,0.22c-0.147,0-0.147-0.147-0.22-0.22l-3.524-7.781c-0.147-0.294-0.294-0.367-0.514-0.367
								h-3.377c-0.22,0-0.367,0.073-0.514,0.367l-3.524,7.781C22.201,28.923,22.201,29.07,22.054,29.07z M28,41.109
								c11.378,0,20.554-9.176,20.554-20.554S39.378,0,28,0S7.446,9.176,7.446,20.554S16.622,41.109,28,41.109z"></path>
						</g>
					</g>
				</g>
			</g>
		</g>
	</g>
</g>
</svg>