<?xml version="1.0" encoding="utf-8"?>
<!-- Generator: Adobe Illustrator 24.0.0, SVG Export Plug-In . SVG Version: 6.00 Build 0)  -->
<svg version="1.1"
	 id="svg6602" xmlns:cc="http://creativecommons.org/ns#" xmlns:dc="http://purl.org/dc/elements/1.1/" xmlns:rdf="http://www.w3.org/1999/02/22-rdf-syntax-ns#" xmlns:svg="http://www.w3.org/2000/svg"
	 xmlns="http://www.w3.org/2000/svg" xmlns:xlink="http://www.w3.org/1999/xlink" x="0px" y="0px" viewBox="0 0 534 434"
	 style="enable-background:new 0 0 534 434;" xml:space="preserve">
<style type="text/css">
	.st0{fill:#FFFFFF;}
</style>
<g id="layer1" transform="translate(4778.3553,368.93431)">
	<path id="path6381" class="st0" d="M-4511.5,19.8c-93.9,0-171.8-77.9-171.8-171.8c0-4.9,0.2-9.7,0.6-14.5l143.7,9l-62.2,42.9
		c-0.8,0.6-1.4,1.6-1.4,2.7c0,1.8,1.5,3.3,3.3,3.3h253.8C-4364.9-35.2-4432.5,19.8-4511.5,19.8 M-4511.5-323.7
		c93.9,0,171.8,77.9,171.8,171.8c0,4.8-0.2,9.6-0.6,14.4l-143.6-9.1l62.3-42.7c0.8-0.6,1.4-1.6,1.4-2.7c0-1.8-1.5-3.3-3.2-3.3
		h-254.1C-4658-268.6-4590.4-323.7-4511.5-323.7 M-4265.1-132.7l-47-3c0.4-5.3,0.7-10.7,0.7-16.2c0-110.5-89.5-200-200-200
		c-95.6,0-175.5,67-195.3,156.7h-36.9c-2.4,0-4.6,1.1-5.9,2.9l-11,15.2c-0.5,0.6-0.8,1.4-0.8,2.3c0,2.1,1.7,3.8,3.8,3.8l46.8,2.9
		c-0.4,5.4-0.7,10.8-0.7,16.3c0,110.5,89.5,200,200,200c95.6,0,175.5-67,195.3-156.7h37.1c2.4,0,4.6-1.1,5.9-2.9l11-15.2
		c0.5-0.6,0.8-1.4,0.8-2.3C-4261.4-131.1-4263-132.7-4265.1-132.7"/>
</g>
</svg>
